# xmcd
#
# Track frame offsets: 
#        150
#        47638
#        87986
#        110478
#        157005
#
# Disc length: 2281 seconds
#
# Revision: 1
# Processed by: cddbd v1.5.1PL0 Copyright (c) Steve Scherf et al.
# Submitted via: ExactAudioCopy v0.95a5
#
DISCID=3908e705
DTITLE=Roswell Rudd - Roswell Rudd
DYEAR=1965
DGENRE=Jazz
TTITLE0=Respects
TTITLE1=Old Stuff
TTITLE2=Jabulani
TTITLE3=Sweet Smells
TTITLE4=Pannonica
EXTD=YEAR: 1965
EXTT0=
EXTT1=
EXTT2=
EXTT3=
EXTT4=
PLAYORDER=
